<?xml version="1.0" encoding="UTF-8"?>
<svg id="Capa_1" xmlns="http://www.w3.org/2000/svg" version="1.1" viewBox="0 0 55 55">
  <!-- Generator: Adobe Illustrator 30.2.1, SVG Export Plug-In . SVG Version: 2.1.1 Build 1)  -->
  <defs>
    <style>
      .st0 {
        fill: #fff;
      }

      .st1 {
        fill: #e1806f;
      }

      .st2 {
        stroke: #e1806f;
      }

      .st2, .st3 {
        fill: none;
        stroke-linecap: round;
        stroke-linejoin: round;
        stroke-width: 2px;
      }

      .st3 {
        stroke: #3cb2dd;
      }
    </style>
  </defs>
  <line class="st2" x1="49.73" y1="27.98" x2="36.33" y2="27.98"/>
  <path class="st2" d="M51.16,16.38c0-6.74-5.46-12.2-12.2-12.2H15.74c-6.74,0-12.2,5.46-12.2,12.2v23.22c0,6.74,5.46,12.2,12.2,12.2h23.22c6.74,0,12.2-5.46,12.2-12.2"/>
  <line class="st3" x1="29.62" y1="39.85" x2="8.66" y2="39.85"/>
  <line class="st3" x1="29.62" y1="24.65" x2="8.66" y2="24.65"/>
  <rect class="st0" x="22.09" y="33.56" width="3.9" height="3.9" transform="translate(48.09 71.03) rotate(-180)"/>
  <rect class="st0" x="11.26" y="33.56" width="7.58" height="3.9" transform="translate(30.1 71.03) rotate(-180)"/>
  <rect class="st1" x="11.26" y="16.69" width="3.9" height="5.46"/>
  <rect class="st0" x="17.96" y="16.69" width="7.58" height="5.46"/>
  <polyline class="st2" points="46.14 32.64 50.9 27.88 46.35 23.33"/>
</svg>