<?xml version="1.0" encoding="UTF-8"?>
<svg id="Capa_1" xmlns="http://www.w3.org/2000/svg" version="1.1" xmlns:xlink="http://www.w3.org/1999/xlink" viewBox="0 0 80.68 80.68">
  <!-- Generator: Adobe Illustrator 30.2.1, SVG Export Plug-In . SVG Version: 2.1.1 Build 1)  -->
  <defs>
    <style>
      .st0 {
        fill: url(#Nueva_muestra_de_degradado_1);
      }
    </style>
    <linearGradient id="Nueva_muestra_de_degradado_1" data-name="Nueva muestra de degradado 1" x1="40.48" y1="78.33" x2="40.48" y2="1.85" gradientUnits="userSpaceOnUse">
      <stop offset=".27" stop-color="#39b1e2"/>
      <stop offset="1" stop-color="#9bd4e6"/>
    </linearGradient>
  </defs>
  <path class="st0" d="M57.76,78.33H23.21c-11.56,0-20.97-9.41-20.97-20.97V22.81C2.24,11.25,11.65,1.85,23.21,1.85h34.55c11.56,0,20.97,9.41,20.97,20.97v34.55c0,11.56-9.41,20.97-20.97,20.97ZM23.21,7.46c-8.47,0-15.36,6.89-15.36,15.36v34.55c0,8.47,6.89,15.36,15.36,15.36h34.55c8.47,0,15.36-6.89,15.36-15.36V22.81c0-8.47-6.89-15.36-15.36-15.36H23.21ZM64.35,41.6c0-8.47-4.55-16.38-11.89-20.65-1.34-.78-3.06-.32-3.84,1.02-.78,1.34-.32,3.06,1.02,3.84,5.61,3.26,9.1,9.31,9.1,15.79,0,10.07-8.19,18.25-18.25,18.25s-18.25-8.19-18.25-18.25c0-6.61,3.59-12.72,9.37-15.95,1.35-.75,1.84-2.46,1.08-3.82s-2.46-1.84-3.82-1.08c-7.55,4.22-12.25,12.21-12.25,20.85,0,13.16,10.71,23.87,23.87,23.87s23.87-10.71,23.87-23.87ZM43.29,35.92v-19c0-1.55-1.26-2.81-2.81-2.81s-2.81,1.26-2.81,2.81v19c0,1.55,1.26,2.81,2.81,2.81s2.81-1.26,2.81-2.81Z"/>
</svg>