<?xml version="1.0" encoding="UTF-8"?>
<svg id="Capa_1" xmlns="http://www.w3.org/2000/svg" version="1.1" xmlns:xlink="http://www.w3.org/1999/xlink" viewBox="0 0 214.6 48.6">
  <!-- Generator: Adobe Illustrator 30.2.1, SVG Export Plug-In . SVG Version: 2.1.1 Build 1)  -->
  <defs>
    <style>
      .st0 {
        fill: url(#Degradado_sin_nombre_5);
      }

      .st1 {
        fill: #fff;
      }

      .st2 {
        fill: none;
      }

      .st3 {
        fill: url(#Degradado_sin_nombre_52);
      }

      .st4 {
        fill: url(#Degradado_sin_nombre_51);
      }
    </style>
    <linearGradient id="Degradado_sin_nombre_5" data-name="Degradado sin nombre 5" x1="152.91" y1="23.02" x2="152.91" y2="0" gradientUnits="userSpaceOnUse">
      <stop offset="0" stop-color="#d86467"/>
      <stop offset="1" stop-color="#f6b683"/>
    </linearGradient>
    <linearGradient id="Degradado_sin_nombre_51" data-name="Degradado sin nombre 5" x1="178.58" x2="178.58" xlink:href="#Degradado_sin_nombre_5"/>
    <linearGradient id="Degradado_sin_nombre_52" data-name="Degradado sin nombre 5" x1="126.95" x2="126.95" xlink:href="#Degradado_sin_nombre_5"/>
  </defs>
  <g>
    <path class="st2" d="M157.84,3.29h-9.87c-.91,0-1.69.33-2.34.98-.63.65-.95,1.42-.95,2.31v9.87c0,.91.32,1.69.95,2.34.65.63,1.43.95,2.34.95h9.87c.89,0,1.66-.32,2.31-.95.65-.65.98-1.43.98-2.34V6.58c0-.89-.33-1.66-.98-2.31-.65-.65-1.42-.98-2.31-.98Z"/>
    <path class="st0" d="M157.84,0h-9.87c-1.83,0-3.39.65-4.68,1.95-1.27,1.27-1.9,2.81-1.9,4.62v9.87c0,1.83.63,3.38,1.9,4.65,1.28,1.28,2.84,1.93,4.68,1.93h9.87c1.82,0,3.37-.64,4.65-1.93,1.28-1.27,1.93-2.82,1.93-4.65V6.58c0-1.82-.64-3.36-1.93-4.62-1.28-1.3-2.83-1.95-4.65-1.95ZM161.13,16.44c0,.91-.33,1.69-.98,2.34-.65.63-1.42.95-2.31.95h-9.87c-.91,0-1.69-.32-2.34-.95-.63-.65-.95-1.43-.95-2.34V6.58c0-.89.32-1.66.95-2.31.65-.65,1.43-.98,2.34-.98h9.87c.89,0,1.66.33,2.31.98.65.65.98,1.42.98,2.31v9.87Z"/>
    <path class="st4" d="M190.09,0h-23.02v3.29h6.58c.89,0,1.66.33,2.31.98.65.65.98,1.42.98,2.31v16.44h3.29V6.58c0-1.2-.29-2.3-.87-3.29h10.74V0Z"/>
    <path class="st3" d="M138.75,6.58c0-1.82-.64-3.36-1.93-4.62-1.28-1.3-2.83-1.95-4.65-1.95h-17.02v5.02c1.18.83,2.28,1.76,3.29,2.8V3.29h13.73c.89,0,1.66.33,2.31.98.65.65.98,1.42.98,2.31s-.33,1.69-.98,2.34c-.65.63-1.42.95-2.31.95h-11.97c.8,1.03,1.51,2.13,2.13,3.29h9.84c.89,0,1.66.33,2.31.98.65.65.98,1.42.98,2.31s-.33,1.69-.98,2.34c-.65.63-1.42.95-2.31.95h-7.37c.25,1.07.43,2.17.56,3.29h6.81c1.82,0,3.36-.63,4.62-1.9,1.3-1.28,1.95-2.84,1.95-4.68s-.64-3.36-1.93-4.62l-.31-.31c.1-.09.2-.17.28-.26,1.3-1.28,1.95-2.84,1.95-4.68Z"/>
  </g>
  <path class="st1" d="M54.1,11.91h8.24c2.37,0,9.56,0,9.56,7.1,0,4.72-3.22,7.11-9.56,7.11h-8.24v-14.21ZM83.98,26.26c0-8.37,6.81-15.18,15.18-15.18s15.18,6.81,15.18,15.18-6.81,15.18-15.18,15.18-15.18-6.81-15.18-15.18M80.28,12.91l-.63.92-.43-1.03c-2.27-5.38-7.93-7.99-17.31-7.99h-16.03v33.88L26.29,4.78,1.5,47.72h33.76l-4.15-7.18H13.94l12.35-21.39,16.5,28.58h11.31v-14.5h7.8c6.09,0,10.72-1.15,13.75-3.43l.82-.61.15,1.01c.8,5.25,3.14,9.73,6.76,12.97,3.99,3.56,9.45,5.45,15.78,5.45,15.78,0,22.84-11.22,22.84-22.34s-7.06-22.34-22.84-22.34c-10.49,0-16.06,4.89-18.89,8.99"/>
  <g>
    <path class="st1" d="M142.76,27.55h3.47c.83,0,1.49.2,1.99.6.5.4.69.94.58,1.64-.08.49-.28.89-.58,1.2-.31.3-.66.51-1.07.61.43.13.79.37,1.08.72.29.35.38.84.29,1.47-.07.45-.23.84-.47,1.16-.24.32-.54.55-.9.71-.36.15-.7.26-1.04.32-.34.06-.69.09-1.06.09h-3.61l1.35-8.51ZM147.5,33.55c.04-.25.03-.47-.04-.64-.06-.18-.16-.32-.27-.41-.12-.1-.27-.17-.46-.23-.19-.06-.36-.09-.51-.1-.15-.01-.32-.02-.5-.02h-2.66l-.46,2.94h2.34c.31,0,.58-.01.81-.04.23-.03.48-.09.75-.18.27-.09.49-.25.67-.47.17-.22.29-.5.35-.84ZM147.76,29.78c.07-.46-.04-.79-.34-.98-.3-.19-.76-.29-1.39-.29h-2.41l-.41,2.65h2.64c.51,0,.94-.11,1.28-.34.34-.23.55-.58.63-1.05Z"/>
    <path class="st1" d="M152.09,35.03l2.76-4.8h1.06l-3.93,6.74c-.75,1.28-1.58,1.92-2.48,1.92-.23,0-.45-.03-.67-.1l.13-.81c.12.04.27.06.45.06.62,0,1.21-.48,1.78-1.45l.32-.54-1.84-5.83h.97l1.45,4.8Z"/>
    <path class="st1" d="M166.18,36.06h-1.06l-.55-2.06h-4.6l-1.19,2.06h-1.14l5.05-8.51h1.14l2.35,8.51ZM162.95,28.94l-2.42,4.11h3.8l-1.11-4.14c-.04-.13-.07-.25-.07-.35-.07.15-.13.27-.19.38Z"/>
    <path class="st1" d="M168.81,31.26c.68-.79,1.52-1.18,2.51-1.18.84,0,1.5.3,1.97.89.47.6.64,1.34.5,2.23-.13.86-.51,1.58-1.16,2.15-.64.57-1.37.86-2.19.86-.99,0-1.7-.39-2.13-1.17l-.58,3.7h-.97l1.35-8.51h.88l-.17,1.03ZM172.84,33.14c.1-.64-.02-1.16-.34-1.56-.32-.4-.77-.6-1.34-.6-.51,0-.98.14-1.41.42-.43.28-.77.63-1.02,1.05l-.23,1.46c.11.4.33.73.66,1,.33.27.74.4,1.22.4.6,0,1.13-.19,1.6-.58.47-.39.75-.92.86-1.58Z"/>
    <path class="st1" d="M180.99,33.2c-.15.93-.57,1.67-1.26,2.2-.69.54-1.46.8-2.31.8s-1.51-.28-2.05-.85c-.54-.56-.74-1.32-.59-2.28.15-.93.58-1.67,1.27-2.2.69-.54,1.46-.8,2.29-.8s1.52.28,2.06.85c.54.56.73,1.32.58,2.28ZM175.73,33.2c-.1.64.02,1.15.36,1.52.34.37.8.56,1.41.56s1.18-.2,1.66-.6c.48-.4.78-.93.88-1.61.1-.64-.02-1.15-.36-1.52-.34-.37-.8-.56-1.41-.56s-1.18.2-1.66.6c-.48.4-.78.93-.88,1.61Z"/>
    <path class="st1" d="M183.4,28.43l1.01-.28-.33,2.07h2.35l-.15.9h-2.35l-.49,3.05c-.07.44-.02.74.15.89.17.16.46.24.88.24.47,0,.92-.11,1.36-.34l-.15.95c-.45.19-.96.29-1.53.29s-1.02-.17-1.34-.5c-.32-.34-.43-.81-.33-1.43l.5-3.15h-1.09l.15-.9h1.09l.28-1.79Z"/>
    <path class="st1" d="M188.1,27.55h.97l-.56,3.48c.67-.63,1.41-.95,2.2-.95.71,0,1.26.23,1.63.68.37.45.5,1.03.39,1.75l-.56,3.56h-.99l.56-3.52c.08-.53,0-.92-.23-1.18-.23-.26-.58-.39-1.05-.39-.39,0-.78.12-1.16.35-.39.24-.71.52-.98.85l-.61,3.88h-.97l1.35-8.51Z"/>
    <path class="st1" d="M193.95,33.1c.15-.95.55-1.69,1.21-2.23.66-.54,1.38-.8,2.15-.8.54,0,.99.11,1.37.32.38.21.65.48.8.82.15.34.24.72.26,1.14.02.42-.06.84-.24,1.25h-4.65c-.03.58.16,1,.58,1.28s.92.42,1.51.42c.76,0,1.46-.17,2.08-.5l-.16.99c-.59.28-1.29.41-2.09.41-.39,0-.77-.06-1.13-.19s-.69-.32-.98-.56c-.29-.24-.5-.57-.64-.98-.14-.41-.17-.87-.09-1.37ZM198.8,32.75c.06-.17.08-.36.05-.56s-.09-.4-.17-.58c-.08-.18-.24-.33-.47-.46s-.53-.18-.88-.18c-.54,0-1.04.16-1.48.48-.44.32-.72.75-.85,1.3h3.8Z"/>
    <path class="st1" d="M205.46,30.22h1.16l-2.66,2.85,1.96,2.99h-1.09l-1.71-2.63h-1.17l-.41,2.63h-.97l1.35-8.51h.97l-.79,4.99h1.23l2.15-2.31Z"/>
    <path class="st1" d="M211.62,35.06c-.69.76-1.52,1.14-2.49,1.14-.84,0-1.5-.3-1.97-.89-.47-.6-.64-1.34-.5-2.23.13-.86.51-1.58,1.16-2.15.64-.57,1.37-.86,2.19-.86.95,0,1.69.39,2.23,1.16l.16-1.01h.88l-.92,5.84h-.88l.16-1ZM207.6,33.14c-.1.64.02,1.16.34,1.56s.77.6,1.34.6c.5,0,.97-.14,1.41-.43.43-.28.77-.63,1.02-1.03l.23-1.46c-.1-.4-.31-.73-.64-1-.33-.27-.74-.41-1.23-.41-.6,0-1.13.19-1.6.58-.47.39-.75.92-.86,1.58Z"/>
  </g>
</svg>